<svg viewBox="25.060000000000002 195.72000000000006 496.54 157.63999999999996" xmlns="http://www.w3.org/2000/svg" width="2500" height="-202"><linearGradient id="a" gradientUnits="userSpaceOnUse" x1="25.76" x2="514.24" y1="270" y2="270"><stop offset="0" stop-color="#00b6ed"/><stop offset="1" stop-color="#29a737"/></linearGradient><path d="M470.26 198.47c40.03 4.75 50.61 45.33 20.66 70.37 30.68 6.87 30.1 52.85 4.09 66.08-2.89 1.47-14.61 5.86-17.1 5.86H395c-2.71 0-4.78-2.44-4.33-5.12 3.85-22.9 13.8-44.85 18.91-67.6l-19.82-62.7c-.44-1.39-.22-2.91.6-4.12l.31-.46a4.833 4.833 0 0 1 4.32-2.1c24.07 1.56 52.09-2.96 75.27-.21zm-9.18 26.02c-10.52-1.28-25.58 0-36.72 0-.92 0-2.15 2.2-2.07 3.51.09 1.45 8.07 26.37 8.83 27.6 3.28 5.28 38.89 4.46 44.3-6.06 6.83-13.27-.96-23.43-14.34-25.05zm-36.73 90.28c7.86 1.99 35.56 0 45.91 0 3.77 0 12.55-6.46 13.85-10.63 8.95-28.84-35.16-23.4-51.36-22.3-1.45.86-9.46 26.19-10.07 29.76-.27 1.55.67 2.9 1.68 3.16zM103.01 198.47c28.16 2.58 46.94 19.79 38.93 49.64-2.74 10.2-8.04 13.95-15.21 20.73 31.87 7.39 29.9 55.37 2.12 67.18-2.57 1.09-14.74 4.76-16.66 4.76H28.03c-1.1 0-2.97-3.32-2.01-4.93l19.73-67.76-19.73-64.7c-.95-1.61.9-4.92 2.01-4.92 23.47 0 52.26-2.08 74.98 0zm-42.85 26.02c-1.47 1.17-1.77 1.28-1.71 3.16.08 2.55 8.75 28.93 10.06 29.8 14.42.66 44.86 6.11 45.86-15.48.35-7.68-6.71-17.49-14.43-17.49H60.15zm0 90.28c8.09 2.05 36.78 0 47.44 0 8.16 0 14.73-10.54 13.87-18.45-2.4-21.86-37.72-14.38-52.95-14.52-1.31.88-9.45 26.4-10.04 29.8-.27 1.56.67 2.91 1.68 3.16zM264.45 293.35c.46 21.38 29.03 29.22 44.94 18.15 3.68-2.56 4.02-7.4 9.34-7.24 1.78.05 19.93 5.2 20.55 6.07 4.39 6.21-13.01 22.02-18.31 25-32.04 18.03-80.9.59-85.43-38.32-5.3-45.48 19.56-79.85 67.75-72.33 20.51 3.2 40.73 21.84 40.73 43.42v22.95c0 1.26-1.03 2.3-2.3 2.3h-77.28zm52.02-22.96c-1.91-29.85-49.13-28.58-52.03 0z"/><path d="M187.17 224.49c4.79 1.48.59 21.42 3.06 21.44 1.68-9.36 13.18-21.44 22.95-21.44h32.13c.95 0 2.37 2.56 2.36 3.83-.03 3.23-5.82 5.07-11.44 13.1-2.44 3.48-4.9 11.82-7.63 13.79-6.49 4.7-24.65-2.98-34.04 6.51-1.06 1.07-4.96 4.13-5.1 9.43v67.33c0 1.26-1.03 2.3-2.3 2.3h-24.48c-1.26 0-2.3-1.03-2.3-2.3V226.77c0-.16 2.13-2.3 2.3-2.3 5.3 0 20.94-1.1 24.48 0zM357.25 257.64c0-.45.34-.81.79-.82 5.27-.07 34.86-.45 36.5.54 5.13 3.06 6.23 21.15-3.77 22.3-3.59.41-27.77.16-32.46.11-.44 0-.79-.36-.8-.8l-.27-21.33z"/><g fill="url(#a)"><path d="M470.26 198.47c40.03 4.75 50.61 45.33 20.66 70.37 30.68 6.87 30.1 52.85 4.09 66.08-2.89 1.47-14.61 5.86-17.1 5.86H395c-2.71 0-4.78-2.44-4.33-5.12 3.85-22.9 13.8-44.85 18.91-67.6l-19.82-62.7c-.44-1.39-.22-2.91.6-4.12l.31-.46a4.833 4.833 0 0 1 4.32-2.1c24.07 1.56 52.09-2.96 75.27-.21zm-9.18 26.02c-10.52-1.28-25.58 0-36.72 0-.92 0-2.15 2.2-2.07 3.51.09 1.45 8.07 26.37 8.83 27.6 3.28 5.28 38.89 4.46 44.3-6.06 6.83-13.27-.96-23.43-14.34-25.05zm-36.73 90.28c7.86 1.99 35.56 0 45.91 0 3.77 0 12.55-6.46 13.85-10.63 8.95-28.84-35.16-23.4-51.36-22.3-1.45.86-9.46 26.19-10.07 29.76-.27 1.55.67 2.9 1.68 3.16zM103.01 198.47c28.16 2.58 46.94 19.79 38.93 49.64-2.74 10.2-8.04 13.95-15.21 20.73 31.87 7.39 29.9 55.37 2.12 67.18-2.57 1.09-14.74 4.76-16.66 4.76H28.03c-1.1 0-2.97-3.32-2.01-4.93l19.73-67.76-19.73-64.7c-.95-1.61.9-4.92 2.01-4.92 23.47 0 52.26-2.08 74.98 0zm-42.85 26.02c-1.47 1.17-1.77 1.28-1.71 3.16.08 2.55 8.75 28.93 10.06 29.8 14.42.66 44.86 6.11 45.86-15.48.35-7.68-6.71-17.49-14.43-17.49H60.15zm0 90.28c8.09 2.05 36.78 0 47.44 0 8.16 0 14.73-10.54 13.87-18.45-2.4-21.86-37.72-14.38-52.95-14.52-1.31.88-9.45 26.4-10.04 29.8-.27 1.56.67 2.91 1.68 3.16zM264.45 293.35c.46 21.38 29.03 29.22 44.94 18.15 3.68-2.56 4.02-7.4 9.34-7.24 1.78.05 19.93 5.2 20.55 6.07 4.39 6.21-13.01 22.02-18.31 25-32.04 18.03-80.9.59-85.43-38.32-5.3-45.48 19.56-79.85 67.75-72.33 20.51 3.2 40.73 21.84 40.73 43.42v22.95c0 1.26-1.03 2.3-2.3 2.3h-77.28zm52.02-22.96c-1.91-29.85-49.13-28.58-52.03 0z"/><path d="M187.17 224.49c4.79 1.48.59 21.42 3.06 21.44 1.68-9.36 13.18-21.44 22.95-21.44h32.13c.95 0 2.37 2.56 2.36 3.83-.03 3.23-5.82 5.07-11.44 13.1-2.44 3.48-4.9 11.82-7.63 13.79-6.49 4.7-24.65-2.98-34.04 6.51-1.06 1.07-4.96 4.13-5.1 9.43v67.33c0 1.26-1.03 2.3-2.3 2.3h-24.48c-1.26 0-2.3-1.03-2.3-2.3V226.77c0-.16 2.13-2.3 2.3-2.3 5.3 0 20.94-1.1 24.48 0zM357.25 257.64c0-.45.34-.81.79-.82 5.27-.07 34.86-.45 36.5.54 5.13 3.06 6.23 21.15-3.77 22.3-3.59.41-27.77.16-32.46.11-.44 0-.79-.36-.8-.8l-.27-21.33z"/></g></svg>